<mxfile host="app.diagrams.net" modified="2021-11-01T19:59:25.559Z" agent="5.0 (Windows NT 10.0; WOW64) AppleWebKit/537.36 (KHTML, like Gecko) Chrome/93.0.4577.82 YaBrowser/21.9.2.172 Yowser/2.5 Safari/537.36" etag="f3_PvuA_89dLzvnjzfus" version="15.6.4" type="github">
  <diagram id="rRmtudpdEV8kB-wlNoaQ" name="Page-1">
    <mxGraphModel dx="1038" dy="647" grid="1" gridSize="10" guides="1" tooltips="1" connect="1" arrows="1" fold="1" page="1" pageScale="1" pageWidth="827" pageHeight="1169" math="0" shadow="0">
      <root>
        <mxCell id="0" />
        <mxCell id="1" parent="0" />
        <mxCell id="Se_WvvpNQdVLBRZ6bhxn-4" value="" style="edgeStyle=orthogonalEdgeStyle;rounded=0;orthogonalLoop=1;jettySize=auto;html=1;" parent="1" source="tulF2AGn9xkQMnw531Gr-1" target="tulF2AGn9xkQMnw531Gr-18" edge="1">
          <mxGeometry relative="1" as="geometry" />
        </mxCell>
        <mxCell id="tulF2AGn9xkQMnw531Gr-1" value="Начало" style="rounded=1;whiteSpace=wrap;html=1;fillColor=default;strokeColor=default;fontColor=default;" parent="1" vertex="1">
          <mxGeometry x="105" y="40" width="120" height="40" as="geometry" />
        </mxCell>
        <mxCell id="tulF2AGn9xkQMnw531Gr-2" value="Конец" style="rounded=1;whiteSpace=wrap;html=1;fillColor=default;strokeColor=default;fontColor=default;" parent="1" vertex="1">
          <mxGeometry x="392" y="700" width="120" height="40" as="geometry" />
        </mxCell>
        <mxCell id="hZLzAB2Df_Atg3REw5vI-14" value="да" style="edgeStyle=orthogonalEdgeStyle;rounded=0;orthogonalLoop=1;jettySize=auto;html=1;labelBackgroundColor=default;fontColor=default;strokeColor=default;entryX=0.5;entryY=0;entryDx=0;entryDy=0;fillColor=default;" edge="1" parent="1" source="tulF2AGn9xkQMnw531Gr-3" target="hZLzAB2Df_Atg3REw5vI-16">
          <mxGeometry x="-0.166" relative="1" as="geometry">
            <mxPoint x="165" y="500" as="targetPoint" />
            <mxPoint y="-1" as="offset" />
          </mxGeometry>
        </mxCell>
        <mxCell id="tulF2AGn9xkQMnw531Gr-3" value="Время &lt;br&gt;22:01-08:00" style="rhombus;whiteSpace=wrap;html=1;fillColor=default;strokeColor=default;fontColor=default;" parent="1" vertex="1">
          <mxGeometry x="104" y="330" width="121" height="80" as="geometry" />
        </mxCell>
        <mxCell id="Se_WvvpNQdVLBRZ6bhxn-6" value="" style="edgeStyle=orthogonalEdgeStyle;rounded=0;orthogonalLoop=1;jettySize=auto;html=1;" parent="1" source="tulF2AGn9xkQMnw531Gr-12" target="tulF2AGn9xkQMnw531Gr-2" edge="1">
          <mxGeometry relative="1" as="geometry" />
        </mxCell>
        <mxCell id="tulF2AGn9xkQMnw531Gr-12" value="Расчет цены на основании скорости передвижения" style="rounded=0;whiteSpace=wrap;html=1;fillColor=default;strokeColor=default;fontColor=default;" parent="1" vertex="1">
          <mxGeometry x="104" y="585" width="696" height="80" as="geometry" />
        </mxCell>
        <mxCell id="mRyLd0OpJltPQzz-3dcJ-1" value="корректно" style="edgeStyle=orthogonalEdgeStyle;rounded=0;orthogonalLoop=1;jettySize=auto;html=1;exitX=0.5;exitY=1;exitDx=0;exitDy=0;strokeColor=default;labelBackgroundColor=default;fontColor=default;" parent="1" source="tulF2AGn9xkQMnw531Gr-18" target="tulF2AGn9xkQMnw531Gr-3" edge="1">
          <mxGeometry relative="1" as="geometry" />
        </mxCell>
        <mxCell id="hZLzAB2Df_Atg3REw5vI-3" value="не корректно" style="edgeStyle=orthogonalEdgeStyle;rounded=0;orthogonalLoop=1;jettySize=auto;html=1;exitX=1;exitY=0.5;exitDx=0;exitDy=0;entryX=0;entryY=0.5;entryDx=0;entryDy=0;labelBackgroundColor=default;fontColor=default;strokeColor=default;" edge="1" parent="1" source="tulF2AGn9xkQMnw531Gr-18" target="Se_WvvpNQdVLBRZ6bhxn-2">
          <mxGeometry relative="1" as="geometry" />
        </mxCell>
        <mxCell id="tulF2AGn9xkQMnw531Gr-18" value="Ввод даты времени и адреса" style="shape=parallelogram;perimeter=parallelogramPerimeter;whiteSpace=wrap;html=1;fixedSize=1;fillColor=default;strokeColor=default;fontColor=default;" parent="1" vertex="1">
          <mxGeometry x="60" y="170" width="210" height="80" as="geometry" />
        </mxCell>
        <mxCell id="Se_WvvpNQdVLBRZ6bhxn-1" value="нет" style="endArrow=classic;html=1;rounded=0;exitX=1;exitY=0.5;exitDx=0;exitDy=0;strokeColor=default;labelBackgroundColor=default;fontColor=default;entryX=0;entryY=0.5;entryDx=0;entryDy=0;" parent="1" source="tulF2AGn9xkQMnw531Gr-3" target="hZLzAB2Df_Atg3REw5vI-2" edge="1">
          <mxGeometry width="50" height="50" relative="1" as="geometry">
            <mxPoint x="390" y="450" as="sourcePoint" />
            <mxPoint x="520" y="360" as="targetPoint" />
          </mxGeometry>
        </mxCell>
        <mxCell id="mRyLd0OpJltPQzz-3dcJ-3" style="edgeStyle=orthogonalEdgeStyle;rounded=0;orthogonalLoop=1;jettySize=auto;html=1;exitX=0.5;exitY=0;exitDx=0;exitDy=0;entryX=1;entryY=0.5;entryDx=0;entryDy=0;" parent="1" source="Se_WvvpNQdVLBRZ6bhxn-2" target="tulF2AGn9xkQMnw531Gr-1" edge="1">
          <mxGeometry relative="1" as="geometry" />
        </mxCell>
        <mxCell id="Se_WvvpNQdVLBRZ6bhxn-2" value="Ошибка" style="rounded=1;whiteSpace=wrap;html=1;fillColor=default;strokeColor=default;fontColor=default;" parent="1" vertex="1">
          <mxGeometry x="661" y="180" width="120" height="60" as="geometry" />
        </mxCell>
        <mxCell id="hZLzAB2Df_Atg3REw5vI-6" value="нет" style="edgeStyle=orthogonalEdgeStyle;rounded=0;orthogonalLoop=1;jettySize=auto;html=1;labelBackgroundColor=default;fontColor=default;strokeColor=default;" edge="1" parent="1" source="hZLzAB2Df_Atg3REw5vI-2" target="hZLzAB2Df_Atg3REw5vI-4">
          <mxGeometry relative="1" as="geometry" />
        </mxCell>
        <mxCell id="hZLzAB2Df_Atg3REw5vI-2" value="Время &lt;br&gt;08:01-12:00" style="rhombus;whiteSpace=wrap;html=1;fillColor=default;strokeColor=default;fontColor=default;" vertex="1" parent="1">
          <mxGeometry x="293" y="330" width="121" height="80" as="geometry" />
        </mxCell>
        <mxCell id="hZLzAB2Df_Atg3REw5vI-10" value="нет" style="edgeStyle=orthogonalEdgeStyle;rounded=0;orthogonalLoop=1;jettySize=auto;html=1;labelBackgroundColor=default;fontColor=default;strokeColor=default;" edge="1" parent="1" source="hZLzAB2Df_Atg3REw5vI-4" target="hZLzAB2Df_Atg3REw5vI-5">
          <mxGeometry relative="1" as="geometry" />
        </mxCell>
        <mxCell id="hZLzAB2Df_Atg3REw5vI-4" value="Время &lt;br&gt;12:01-18:00" style="rhombus;whiteSpace=wrap;html=1;fillColor=default;strokeColor=default;fontColor=default;" vertex="1" parent="1">
          <mxGeometry x="470" y="330" width="121" height="80" as="geometry" />
        </mxCell>
        <mxCell id="hZLzAB2Df_Atg3REw5vI-8" value="нет" style="edgeStyle=orthogonalEdgeStyle;rounded=0;orthogonalLoop=1;jettySize=auto;html=1;labelBackgroundColor=default;fontColor=default;strokeColor=default;" edge="1" parent="1" source="hZLzAB2Df_Atg3REw5vI-5" target="Se_WvvpNQdVLBRZ6bhxn-2">
          <mxGeometry relative="1" as="geometry" />
        </mxCell>
        <mxCell id="hZLzAB2Df_Atg3REw5vI-5" value="Время &lt;br&gt;18:01-22:00" style="rhombus;whiteSpace=wrap;html=1;fillColor=default;strokeColor=default;fontColor=default;" vertex="1" parent="1">
          <mxGeometry x="660" y="330" width="121" height="80" as="geometry" />
        </mxCell>
        <mxCell id="hZLzAB2Df_Atg3REw5vI-19" value="" style="edgeStyle=orthogonalEdgeStyle;rounded=0;orthogonalLoop=1;jettySize=auto;html=1;labelBackgroundColor=default;fontColor=default;strokeColor=default;entryX=0.088;entryY=0.01;entryDx=0;entryDy=0;entryPerimeter=0;fillColor=default;" edge="1" parent="1" source="hZLzAB2Df_Atg3REw5vI-16" target="tulF2AGn9xkQMnw531Gr-12">
          <mxGeometry relative="1" as="geometry" />
        </mxCell>
        <mxCell id="hZLzAB2Df_Atg3REw5vI-16" value="скорость:&lt;br&gt;45 км/ч" style="shape=parallelogram;perimeter=parallelogramPerimeter;whiteSpace=wrap;html=1;fixedSize=1;fillColor=default;strokeColor=default;fontColor=default;" vertex="1" parent="1">
          <mxGeometry x="115" y="480" width="100" height="60" as="geometry" />
        </mxCell>
        <mxCell id="hZLzAB2Df_Atg3REw5vI-20" value="да" style="edgeStyle=orthogonalEdgeStyle;rounded=0;orthogonalLoop=1;jettySize=auto;html=1;labelBackgroundColor=default;fontColor=default;strokeColor=default;entryX=0.5;entryY=0;entryDx=0;entryDy=0;" edge="1" parent="1" target="hZLzAB2Df_Atg3REw5vI-22">
          <mxGeometry x="-0.166" relative="1" as="geometry">
            <mxPoint x="353" y="410" as="sourcePoint" />
            <mxPoint x="353.5" y="500" as="targetPoint" />
            <mxPoint y="-1" as="offset" />
          </mxGeometry>
        </mxCell>
        <mxCell id="hZLzAB2Df_Atg3REw5vI-21" value="" style="edgeStyle=orthogonalEdgeStyle;rounded=0;orthogonalLoop=1;jettySize=auto;html=1;labelBackgroundColor=default;fontColor=default;strokeColor=default;entryX=0.088;entryY=0.01;entryDx=0;entryDy=0;entryPerimeter=0;" edge="1" parent="1" source="hZLzAB2Df_Atg3REw5vI-22">
          <mxGeometry relative="1" as="geometry">
            <mxPoint x="353.74800000000005" y="585.8" as="targetPoint" />
          </mxGeometry>
        </mxCell>
        <mxCell id="hZLzAB2Df_Atg3REw5vI-22" value="скорость:&lt;br&gt;30 км/ч" style="shape=parallelogram;perimeter=parallelogramPerimeter;whiteSpace=wrap;html=1;fixedSize=1;fillColor=default;strokeColor=default;fontColor=default;labelBackgroundColor=default;" vertex="1" parent="1">
          <mxGeometry x="303.5" y="480" width="100" height="60" as="geometry" />
        </mxCell>
        <mxCell id="hZLzAB2Df_Atg3REw5vI-23" value="да" style="edgeStyle=orthogonalEdgeStyle;rounded=0;orthogonalLoop=1;jettySize=auto;html=1;labelBackgroundColor=default;fontColor=default;strokeColor=default;entryX=0.5;entryY=0;entryDx=0;entryDy=0;" edge="1" parent="1" target="hZLzAB2Df_Atg3REw5vI-25">
          <mxGeometry x="-0.166" relative="1" as="geometry">
            <mxPoint x="530" y="410" as="sourcePoint" />
            <mxPoint x="530.5" y="500" as="targetPoint" />
            <mxPoint y="-1" as="offset" />
          </mxGeometry>
        </mxCell>
        <mxCell id="hZLzAB2Df_Atg3REw5vI-24" value="" style="edgeStyle=orthogonalEdgeStyle;rounded=0;orthogonalLoop=1;jettySize=auto;html=1;labelBackgroundColor=default;fontColor=default;strokeColor=default;entryX=0.088;entryY=0.01;entryDx=0;entryDy=0;entryPerimeter=0;" edge="1" parent="1" source="hZLzAB2Df_Atg3REw5vI-25">
          <mxGeometry relative="1" as="geometry">
            <mxPoint x="530.748" y="585.8" as="targetPoint" />
          </mxGeometry>
        </mxCell>
        <mxCell id="hZLzAB2Df_Atg3REw5vI-25" value="скорость:&lt;br&gt;40 км/ч" style="shape=parallelogram;perimeter=parallelogramPerimeter;whiteSpace=wrap;html=1;fixedSize=1;fillColor=default;strokeColor=default;fontColor=default;labelBackgroundColor=default;" vertex="1" parent="1">
          <mxGeometry x="480.5" y="480" width="100" height="60" as="geometry" />
        </mxCell>
        <mxCell id="hZLzAB2Df_Atg3REw5vI-26" value="да" style="edgeStyle=orthogonalEdgeStyle;rounded=0;orthogonalLoop=1;jettySize=auto;html=1;labelBackgroundColor=default;fontColor=default;strokeColor=default;entryX=0.5;entryY=0;entryDx=0;entryDy=0;" edge="1" parent="1" target="hZLzAB2Df_Atg3REw5vI-28">
          <mxGeometry x="-0.166" relative="1" as="geometry">
            <mxPoint x="720.5" y="409" as="sourcePoint" />
            <mxPoint x="721" y="499" as="targetPoint" />
            <mxPoint y="-1" as="offset" />
          </mxGeometry>
        </mxCell>
        <mxCell id="hZLzAB2Df_Atg3REw5vI-27" value="" style="edgeStyle=orthogonalEdgeStyle;rounded=0;orthogonalLoop=1;jettySize=auto;html=1;labelBackgroundColor=default;fontColor=default;strokeColor=default;entryX=0.088;entryY=0.01;entryDx=0;entryDy=0;entryPerimeter=0;" edge="1" parent="1" source="hZLzAB2Df_Atg3REw5vI-28">
          <mxGeometry relative="1" as="geometry">
            <mxPoint x="721.248" y="584.8" as="targetPoint" />
          </mxGeometry>
        </mxCell>
        <mxCell id="hZLzAB2Df_Atg3REw5vI-28" value="скорость:&lt;br&gt;25 км/ч" style="shape=parallelogram;perimeter=parallelogramPerimeter;whiteSpace=wrap;html=1;fixedSize=1;fillColor=default;strokeColor=default;fontColor=default;labelBackgroundColor=default;" vertex="1" parent="1">
          <mxGeometry x="671" y="479" width="100" height="60" as="geometry" />
        </mxCell>
      </root>
    </mxGraphModel>
  </diagram>
</mxfile>
